<svg width="24" height="23" viewBox="0 0 24 23" fill="none" xmlns="http://www.w3.org/2000/svg">
<path d="M16.375 11.6248H13.2139C13.2139 14.1096 13.2139 23 13.2139 23H9.5C9.5 23 9.5 14.404 9.5 11.6248H7V7.83305H9.53612V4.05565C9.5 0.895869 11.375 -1 14.5 -1H17V2.79174C17 2.79174 15.125 2.79174 14.5 2.79174C13.875 2.79174 13.25 3.42369 13.25 4.05565L13.2139 7.83305H17L16.375 11.6248Z" fill="#CCCBCF"/>
<mask id="mask0" mask-type="alpha" maskUnits="userSpaceOnUse" x="7" y="-1" width="10" height="24">
<path d="M16.375 11.6248H13.2139C13.2139 14.1096 13.2139 23 13.2139 23H9.5C9.5 23 9.5 14.404 9.5 11.6248H7V7.83305H9.53612V4.05565C9.5 0.895869 11.375 -1 14.5 -1H17V2.79174C17 2.79174 15.125 2.79174 14.5 2.79174C13.875 2.79174 13.25 3.42369 13.25 4.05565L13.2139 7.83305H17L16.375 11.6248Z" fill="white"/>
</mask>
<g mask="url(#mask0)">
<rect y="-1" width="24" height="24" fill="#CCCBCF"/>
</g>
</svg>
