<svg width="24" height="23" viewBox="0 0 24 23" fill="none" xmlns="http://www.w3.org/2000/svg">
<path fill-rule="evenodd" clip-rule="evenodd" d="M11.9998 15C14.203 15 16 13.203 16 10.9998C16 8.79648 14.2034 7 11.9998 7C9.79652 7 8 8.79652 8 10.9998C8 13.2034 9.79648 15 11.9998 15ZM11.9998 17.4C8.47104 17.4 5.6 14.529 5.6 10.9998C5.6 7.47104 8.47104 4.6 11.9998 4.6C15.529 4.6 18.4 7.47104 18.4 10.9998C18.4 14.5285 15.5285 17.4 11.9998 17.4ZM4 1C2.89543 1 2 1.89543 2 3V19C2 20.1046 2.89543 21 4 21H20C21.1046 21 22 20.1046 22 19V3C22 1.89543 21.1046 1 20 1H4ZM4 -1H20C22.2091 -1 24 0.790861 24 3V19C24 21.2091 22.2091 23 20 23H4C1.79086 23 0 21.2091 0 19V3C0 0.790861 1.79086 -1 4 -1ZM18.4002 6.19951C17.5177 6.19951 16.8 5.48181 16.8 4.59976C16.8 3.7177 17.5177 3 18.4002 3C19.2823 3 20 3.7177 20 4.59976C20 5.48181 19.2823 6.19951 18.4002 6.19951Z" fill="#292C33"/>
<mask id="mask0" mask-type="alpha" maskUnits="userSpaceOnUse" x="0" y="-1" width="24" height="24">
<path fill-rule="evenodd" clip-rule="evenodd" d="M11.9998 15C14.203 15 16 13.203 16 10.9998C16 8.79648 14.2034 7 11.9998 7C9.79652 7 8 8.79652 8 10.9998C8 13.2034 9.79648 15 11.9998 15ZM11.9998 17.4C8.47104 17.4 5.6 14.529 5.6 10.9998C5.6 7.47104 8.47104 4.6 11.9998 4.6C15.529 4.6 18.4 7.47104 18.4 10.9998C18.4 14.5285 15.5285 17.4 11.9998 17.4ZM4 1C2.89543 1 2 1.89543 2 3V19C2 20.1046 2.89543 21 4 21H20C21.1046 21 22 20.1046 22 19V3C22 1.89543 21.1046 1 20 1H4ZM4 -1H20C22.2091 -1 24 0.790861 24 3V19C24 21.2091 22.2091 23 20 23H4C1.79086 23 0 21.2091 0 19V3C0 0.790861 1.79086 -1 4 -1ZM18.4002 6.19951C17.5177 6.19951 16.8 5.48181 16.8 4.59976C16.8 3.7177 17.5177 3 18.4002 3C19.2823 3 20 3.7177 20 4.59976C20 5.48181 19.2823 6.19951 18.4002 6.19951Z" fill="white"/>
</mask>
<g mask="url(#mask0)">
<rect y="-1" width="24" height="24" fill="#CCCBCF"/>
</g>
</svg>
