<svg width="48" height="48" viewBox="0 0 48 48" fill="none" xmlns="http://www.w3.org/2000/svg">
<path fill-rule="evenodd" clip-rule="evenodd" d="M20.3363 6.60205L47.4035 22.0828C47.7232 22.2652 47.9162 22.6095 47.9065 22.9775C47.8958 23.3463 47.6843 23.6789 47.3549 23.8438L43.7589 25.6432C43.8518 26.0892 43.9143 26.5255 43.9143 26.9489C43.9143 30.8043 40.7798 33.9416 36.9279 33.9416C36.8531 33.9416 36.7808 33.9319 36.7084 33.9223C36.6613 33.9161 36.6143 33.9098 36.5665 33.9062L35.8276 35.3873C35.7047 35.6331 35.4855 35.8175 35.2223 35.8975C35.1278 35.9257 35.0312 35.9394 34.9347 35.9394C34.7613 35.9394 34.5887 35.8946 34.4357 35.8058L25.9417 30.9005L24.8451 32.7299C24.0283 34.0936 22.5331 34.9404 20.9445 34.9404C20.6197 34.9404 20.3019 34.8784 19.9869 34.81L18.351 37.2661C17.2379 38.9371 15.3753 39.934 13.3685 39.934H5.9884V40.9311C5.9884 41.4833 5.54199 41.9301 4.99032 41.9301H0.998082C0.446409 41.9301 0 41.4833 0 40.9311V30.9416C0 30.3895 0.446409 29.9534 0.998082 29.9534H4.99022C5.54189 29.9534 5.9883 30.3895 5.9883 30.9416V33.9456H13.3684L14.8878 31.6595C14.3232 30.9152 13.9727 30.0149 13.9727 29.0578C13.9727 28.1271 14.2797 27.2043 14.8382 26.4599L15.8694 25.0838L10.1608 21.7872C8.81881 21.0126 7.98447 19.5669 7.98447 18.0148C7.98447 17.1164 8.25637 16.253 8.77099 15.5165L14.0146 8.02044C15.3909 6.05085 18.2485 5.40608 20.3363 6.60205ZM1.99607 39.934H3.99214V31.9496H1.99607V39.934ZM16.6901 36.163C15.9484 37.2761 14.7066 37.9408 13.3684 37.9408H5.9883V35.9447H13.3684C14.039 35.9447 14.6598 35.6124 15.0292 35.0559L16.4113 32.982L18.1253 34.0101L16.6901 36.163ZM19.6316 32.586C20.7935 33.2848 22.4357 32.8715 23.1336 31.7107L24.2124 29.9126L17.6103 26.1034L16.4347 27.6708C16.1346 28.0724 15.9688 28.5685 15.9688 29.0694C15.9688 29.8833 16.4026 30.6493 17.1004 31.0675L19.6316 32.586ZM34.5156 33.5529L11.1579 20.0762C10.4318 19.6571 9.98054 18.8755 9.98054 18.0363C9.98054 17.5499 10.1277 17.083 10.4065 16.6844L12.9123 13.1054L37.6109 27.3542L34.5156 33.5529ZM39.6676 27.7029L37.5785 31.8866C40.0203 31.5638 41.9181 29.4908 41.9181 26.9622C41.9181 26.8832 41.9082 26.8005 41.8983 26.7179L41.8983 26.7178L41.8983 26.7177C41.8934 26.6764 41.8884 26.6352 41.8847 26.5945L39.6676 27.7029ZM38.9578 25.8264L14.0617 11.4638L15.6502 9.19518C16.1755 8.44467 17.0351 7.9963 17.9513 7.9963C18.4397 7.9963 18.9221 8.12402 19.3461 8.36664L44.7944 22.9086L38.9578 25.8264ZM32.9359 29.9534C33.4871 29.9534 33.9339 29.5066 33.9339 28.9554C33.9339 28.4041 33.4871 27.9573 32.9359 27.9573C32.3846 27.9573 31.9378 28.4041 31.9378 28.9554C31.9378 29.5066 32.3846 29.9534 32.9359 29.9534Z" fill="url(#paint0_linear)"/>
<defs>
<linearGradient id="paint0_linear" x1="71.5807" y1="24.1749" x2="37.4908" y2="-21.2787" gradientUnits="userSpaceOnUse">
<stop stop-color="#FFBE73"/>
<stop offset="1" stop-color="#FFA033"/>
</linearGradient>
</defs>
</svg>
