<svg width="159" height="145" viewBox="0 0 159 145" fill="none" xmlns="http://www.w3.org/2000/svg">
<path fill-rule="evenodd" clip-rule="evenodd" d="M145.016 13L145.353 13.0054L146.536 8.73302C146.685 8.19769 147.241 7.88577 147.775 8.03837L158.275 11.0384C158.791 11.1858 159.098 11.7141 158.972 12.2355L150.972 45.2355C150.836 45.7942 150.259 46.124 149.709 45.9566L138.209 42.4566C137.69 42.2986 137.392 41.7558 137.536 41.233L138.218 38.7707L130.56 41.0122C122.806 43.2815 114.447 42.0283 107.7 37.5851L101.443 33.4648C98.886 31.7807 96.0781 30.5123 93.124 29.7066L80.7731 26.3382C77.8687 25.4686 76.1095 22.8257 76.2984 20.0492L49.9882 24.5713C46.4776 25.1747 43.1022 22.9467 42.2772 19.4815C41.4588 16.0442 43.5795 12.5937 47.0158 11.7713L91.5505 1.11341C97.1356 -0.223178 103.024 0.785763 107.846 3.90535C113.081 7.29275 117.561 9.50199 121.269 10.5367C126.531 12.0051 134.454 12.8305 145.016 13ZM76.8344 17.9278C78.0971 15.1151 81.2455 13.5709 84.3003 14.3965L117.226 23.2954L116.704 25.2262L83.7784 16.3272C81.496 15.7104 79.1372 17.0226 78.4578 19.2872C77.8087 21.4509 79.0365 23.7312 81.2002 24.3803C81.2497 24.3949 93.6502 27.7771 93.6502 27.7771C96.8081 28.6383 99.8096 29.9942 102.543 31.7944L108.8 35.9147C115.057 40.035 122.808 41.1971 129.998 39.0927L138.846 36.503L144.802 14.9968C134.175 14.8182 126.159 13.9778 120.731 12.4631C116.802 11.3666 112.15 9.07256 106.759 5.58453C102.397 2.76204 97.0691 1.84919 92.016 3.05849L47.4813 13.7164C45.1183 14.2819 43.66 16.6546 44.2228 19.0183C44.8034 21.4569 47.1788 23.0248 49.6494 22.6002L76.8344 17.9278ZM53 45.9999C59.1144 44.6477 63.6144 43.481 66.5 42.4999C69.3856 41.5188 73.2189 39.8521 78 37.4999C83.2829 39.8729 87.4496 41.5396 90.5 42.4999C93.5504 43.4602 98.3837 44.6269 105 45.9999V81.7983C105 90.6052 100.366 98.7623 92.8016 103.272L79 111.5L65.1984 103.272C57.6338 98.7623 53 90.6052 53 81.7983V45.9999ZM55 47.602V81.7983C55 89.9006 59.2631 97.4052 66.2225 101.554L79 109.171L91.7775 101.554C98.7369 97.4052 103 89.9006 103 81.7983V47.6242C97.1334 46.382 92.7737 45.3124 89.8994 44.4076C86.931 43.4731 82.9831 41.9076 78.0382 39.7077C73.5755 41.8786 69.9497 43.4394 67.1438 44.3934C64.4307 45.3159 60.3897 46.3825 55 47.602ZM68.8933 47.2229C66.5649 48.0515 62.9338 49.0369 58 50.1789V81.3143C58 88.2152 61.5577 94.6286 67.4123 98.2819L78.9797 105.5L90.5472 98.2819C96.4018 94.6286 99.9595 88.2152 99.9595 81.3143V50.1789C94.6207 49.0193 90.7206 48.0339 88.2592 47.2229C85.7978 46.4118 82.4357 45.0041 78.1728 42.9999C74.3149 44.9866 71.2217 46.3942 68.8933 47.2229ZM89.2959 64.6054C89.7899 63.9404 90.7295 63.8018 91.3945 64.2958C92.0595 64.7898 92.1981 65.7294 91.7041 66.3944L78.7041 83.8944C78.1177 84.6838 76.943 84.7048 76.3287 83.9369L69.3287 75.1869C68.8112 74.54 68.9161 73.5961 69.563 73.0786C70.2099 72.5611 71.1538 72.666 71.6713 73.3129L77.456 80.5437L89.2959 64.6054ZM74.7 130.604C77.7547 131.429 80.9031 129.885 82.1658 127.072L109.351 122.4C111.821 121.975 114.197 123.543 114.777 125.982C115.34 128.345 113.882 130.718 111.519 131.284L66.9842 141.942C61.9311 143.151 56.6031 142.238 52.2408 139.416C46.8498 135.928 42.198 133.633 38.269 132.537C32.8412 131.022 24.8256 130.182 14.1985 130.003L20.1541 108.497L29.0023 105.907C36.1922 103.803 43.9435 104.965 50.2002 109.085L56.4569 113.206C59.1906 115.006 62.1921 116.362 65.35 117.223C73.617 119.478 77.767 120.61 77.8 120.62C79.9637 121.269 81.1915 123.549 80.5424 125.713C79.863 127.978 77.5042 129.29 75.2218 128.673L42.2957 119.774L41.7739 121.705L74.7 130.604ZM13.9842 132L13.6471 131.995L12.4639 136.267C12.3157 136.802 11.7596 137.114 11.2255 136.962L0.725481 133.962C0.209577 133.814 -0.098059 133.286 0.0283517 132.765L8.02835 99.7646C8.1638 99.2059 8.74135 98.8762 9.29136 99.0435L20.7914 102.544C21.3103 102.701 21.6087 103.244 21.4639 103.767L20.7821 106.229L28.4405 103.988C36.194 101.719 44.553 102.972 51.3002 107.415L57.5569 111.535C60.1142 113.219 62.9221 114.488 65.8762 115.294L78.2271 118.662C81.1315 119.532 82.8907 122.174 82.7018 124.951L109.012 120.429C112.523 119.825 115.898 122.053 116.723 125.519C117.541 128.956 115.421 132.406 111.984 133.229L67.4497 143.887C61.8646 145.223 55.9759 144.214 51.1544 141.095C45.9189 137.707 41.4391 135.498 37.7314 134.463C32.4696 132.995 24.5457 132.17 13.9842 132ZM10.8055 134.762L2.19831 132.303L9.72247 101.265L19.2763 104.173L10.8055 134.762ZM148.195 10.2384L156.802 12.6976L149.278 43.7348L139.724 40.8271L148.195 10.2384Z" fill="white"/>
</svg>
