<svg width="48" height="49" viewBox="0 0 48 49" fill="none" xmlns="http://www.w3.org/2000/svg">
<path fill-rule="evenodd" clip-rule="evenodd" d="M32.3831 32.6273C30.5868 34.7813 28.3154 36.0454 25.6122 36.3979L28.1279 41.1149L32.052 35.6816C32.1182 35.4836 32.242 35.3184 32.3996 35.2002L33.2829 33.9772L32.3831 32.6273ZM22.5044 36.3402L20.3138 41.0342L15.2171 33.9772L16.2177 32.4763C18.1096 34.4713 20.3203 35.8828 22.5044 36.3402ZM24.0048 34.5C27.0211 34.4987 29.3898 33.3136 31.2 30.9C31.2056 30.8926 31.2112 30.8853 31.2169 30.8781L31.1133 30.7226L32.7774 29.6132L35.3321 33.4453C35.5636 33.7926 35.5551 34.2471 35.3107 34.5855L34.7208 35.4023C36.4442 35.8447 37.8048 36.2262 38.806 36.548C39.6385 36.8156 41.151 37.3405 43.3515 38.1253C46.1389 39.1194 48 41.7591 48 44.7185L48 47C48 47.5523 47.5523 48 47 48H28.5622L27.6318 48.1163L27.6172 48H20.8828L20.8682 48.1163L19.9378 48L2 48L2.00001 46H19.1172L19.4589 43.2665L14.9619 37.0398L15.2404 36.9707L16.2111 36.7303L15.7303 34.7889L14.7596 35.0293C14.3937 35.1199 14.041 35.2083 13.7014 35.2945L13.1893 34.5855C12.945 34.2471 12.9364 33.7926 13.168 33.4453L14.8727 30.8881C12.5707 27.8472 11 23.9178 11 20C11 9.42459 14.4972 4 24 4C33.5028 4 37 9.42459 37 20C37 20.5523 36.5523 21 36 21C35.4477 21 35 20.5523 35 20C35 10.3934 32.1676 6 24 6C15.8324 6 13 10.3934 13 20C13 23.894 14.7927 27.8225 17.2124 30.6064L17.3868 30.7226L17.3557 30.7692C19.377 33.034 21.8116 34.5 24 34.5C24.0016 34.5 24.0032 34.5 24.0048 34.5ZM4.21977e-06 47L1.38472e-05 44.7185C1.70179e-05 41.7591 1.8611 39.1194 4.64853 38.1253C6.84901 37.3405 8.36147 36.8156 9.194 36.548C10.2756 36.2003 11.7767 35.783 13.7014 35.2945L14.9619 37.0398C12.6997 37.6035 10.9791 38.075 9.80602 38.452C8.9996 38.7112 7.5017 39.2311 5.32038 40.0091C3.32936 40.7192 2.00002 42.6046 2.00001 44.7185L2.00001 46H1C0.447719 46 4.21977e-06 46.4477 4.21977e-06 47ZM4.21977e-06 47L0 48L1 48C0.447719 48 4.21977e-06 47.5523 4.21977e-06 47ZM33.4615 37.1459L29.0411 43.2665L29.3828 46H46L46 44.7185C46 42.6046 44.6707 40.7192 42.6796 40.0091C40.4983 39.2311 39.0004 38.7112 38.194 38.452C37.0952 38.0989 35.5161 37.6628 33.4615 37.1459ZM27.3672 46L27.1172 44H21.3828L21.1328 46H27.3672ZM26.3333 42L24.0597 37.7369L22.0702 42H26.3333Z" fill="url(#paint0_linear)"/>
<path fill-rule="evenodd" clip-rule="evenodd" d="M37.5 13C37.5 6.92487 32.5751 2 26.5 2H21.5C15.4249 2 10.5 6.92487 10.5 13H8.5C8.5 5.8203 14.3203 0 21.5 0H26.5C33.6797 0 39.5 5.8203 39.5 13H37.5ZM37.5 13H37C35.8954 13 35 13.8954 35 15V23C35 24.1046 35.8954 25 37 25H37.8839C37.4721 26.7441 36.0057 28.0995 34.1562 28.3129L25.8854 29.2672C25.3367 29.3305 24.9433 29.8266 25.0066 30.3752C25.0699 30.9239 25.566 31.3173 26.1146 31.254L34.3854 30.2997C37.2478 29.9694 39.4819 27.7666 39.9213 25H40C41.1046 25 42 24.1046 42 23V15C42 13.8954 41.1046 13 40 13H39.5V15H40V23H38H37V15H37.5V13ZM8.5 13H8C6.89543 13 6 13.8954 6 15V23C6 24.1046 6.89543 25 8 25H11C12.1046 25 13 24.1046 13 23V15C13 13.8954 12.1046 13 11 13H10.5V14H8.5V13ZM8 15V23H11V15H8Z" fill="url(#paint1_linear)"/>
<defs>
<linearGradient id="paint0_linear" x1="71.7199" y1="26.3157" x2="28.2733" y2="-20.9557" gradientUnits="userSpaceOnUse">
<stop stop-color="#FFBE73"/>
<stop offset="1" stop-color="#FFA033"/>
</linearGradient>
<linearGradient id="paint1_linear" x1="59.7899" y1="15.8128" x2="29.1994" y2="-19.4154" gradientUnits="userSpaceOnUse">
<stop stop-color="#FFBE73"/>
<stop offset="1" stop-color="#FFA033"/>
</linearGradient>
</defs>
</svg>
