<svg width="38" height="48" viewBox="0 0 38 48" fill="none" xmlns="http://www.w3.org/2000/svg">
<path fill-rule="evenodd" clip-rule="evenodd" d="M0.972814 0H36.0652C36.5919 0 37.0191 0.428062 37.0189 0.956154V43.0438C37.0189 43.5719 36.5918 44 36.065 44H34.9776V47.0438C34.9776 47.4202 34.7573 47.7614 34.4149 47.9158C34.2894 47.9723 34.1562 48 34.0238 48C33.7947 48 33.5687 47.9175 33.3907 47.7593L29 44H8L3.64712 47.7593C3.46913 47.9174 3.24297 48 3.01401 48C2.88157 48 2.74829 47.9723 2.62287 47.9158C2.28055 47.7614 2.06029 47.4201 2.06029 47.0438V44H0.972814C0.44596 44 0.0189018 43.5719 0.0189018 43.0438V0.956154C0.0189018 0.428062 0.44596 0 0.972814 0ZM3.96978 44V45.5L5.5 44H3.96978ZM33.083 45.5L31.5 44.0831H33.083V45.5ZM1.92758 42H35.1251H35.1251V1.90858H1.92758V42Z" fill="url(#paint0_linear)"/>
<path fill-rule="evenodd" clip-rule="evenodd" d="M4.97584 4H32.0242C32.563 4 33 4.43978 33 4.98233V39.0177C33 39.5602 32.563 40 32.0242 40H4.97584C4.43687 40 4 39.5602 4 39.0176V4.98233C4 4.43978 4.43687 4 4.97584 4ZM6 38H31V6H6V38ZM24 35C24 35.5523 23.5523 36 23 36C22.4477 36 22 35.5523 22 35C22 34.4477 22.4477 34 23 34C23.5523 34 24 34.4477 24 35ZM8.60154 34.1643H19.4807C20.0077 34.1643 20.435 34.5915 20.435 35.1186C20.435 35.6457 20.0077 36.0729 19.4807 36.0729H8.60154C8.07448 36.0729 7.64725 35.6457 7.64725 35.1186C7.64725 34.5915 8.07448 34.1643 8.60154 34.1643Z" fill="url(#paint1_linear)"/>
<path fill-rule="evenodd" clip-rule="evenodd" d="M10.9873 21.3765C10.9873 17.2194 14.3693 13.8374 18.5264 13.8374C22.6834 13.8374 26.0655 17.2194 26.0655 21.3765C26.0655 25.5336 22.6835 28.9156 18.5264 28.9156C14.3693 28.9156 10.9873 25.5336 10.9873 21.3765ZM22.64 22.6127C22.8029 22.1114 23.3416 21.8372 23.8425 22L24.1104 22.087C24.1399 21.8542 24.1568 21.6173 24.1568 21.3765C24.1568 21.0692 24.1312 20.768 24.0836 20.4741L23.7836 20.5715C23.6855 20.6033 23.5861 20.6185 23.4885 20.6185C23.0861 20.6185 22.712 20.362 22.5811 19.9588C22.4182 19.4574 22.6925 18.9191 23.194 18.7561L23.4616 18.6692C23.2001 18.1945 22.8722 17.7611 22.4903 17.3821L22.3066 17.635C22.1199 17.892 21.8289 18.0285 21.5338 18.0285C21.3392 18.0285 21.1429 17.9693 20.9737 17.8462C20.5472 17.5365 20.4526 16.9396 20.7624 16.5132L20.9281 16.2852C20.4471 16.0573 19.9291 15.895 19.3855 15.8115V16.1277C19.3855 16.6548 18.9581 17.082 18.4312 17.082C17.9041 17.082 17.4769 16.6548 17.4769 16.1277V15.8457C16.9375 15.9478 16.4255 16.1272 15.9521 16.3718L16.1363 16.6254C16.4461 17.0518 16.3516 17.6485 15.9252 17.9584C15.7559 18.0814 15.5596 18.1407 15.3651 18.1407C15.0699 18.1407 14.7789 18.0042 14.5922 17.7472L14.4284 17.5216C14.0601 17.913 13.7472 18.3568 13.5019 18.8407L13.8001 18.9376C14.3015 19.1005 14.5758 19.6389 14.4129 20.1401C14.2819 20.5434 13.9077 20.7998 13.5055 20.7998C13.4076 20.7998 13.3084 20.7847 13.2104 20.7529L12.9425 20.6658C12.913 20.8987 12.8961 21.1356 12.8961 21.3764C12.8961 21.6837 12.9217 21.985 12.9691 22.2789L13.2691 22.1815C13.7703 22.0185 14.3088 22.2929 14.4716 22.7942C14.6345 23.2955 14.3601 23.8338 13.8589 23.9967L13.5912 24.0837C13.8528 24.5585 14.1807 24.9918 14.5626 25.3709L14.7464 25.1179C15.0561 24.6915 15.6531 24.5969 16.0793 24.9067C16.5057 25.2164 16.6003 25.8133 16.2905 26.2396L16.1248 26.4677C16.6059 26.6956 17.1238 26.8578 17.6675 26.9414V26.6251C17.6675 26.0981 18.0947 25.6709 18.6218 25.6709C19.1487 25.6709 19.576 26.0981 19.576 26.6251V26.9072C20.1154 26.805 20.6274 26.6257 21.1008 26.3811L20.9166 26.1275C20.6068 25.7011 20.7013 25.1043 21.1277 24.7945C21.554 24.4847 22.1507 24.5791 22.4606 25.0056L22.6246 25.2312C22.9929 24.8399 23.3057 24.3961 23.551 23.9121L23.2528 23.8152C22.7514 23.6523 22.4772 23.114 22.64 22.6127ZM18.5264 17.941C16.632 17.941 15.0909 19.4821 15.0909 21.3765C15.0909 23.2709 16.632 24.812 18.5264 24.812C20.4208 24.812 21.9619 23.2709 21.9619 21.3765C21.9619 19.4821 20.4208 17.941 18.5264 17.941ZM16.9995 21.3765C16.9995 22.2184 17.6845 22.9034 18.5264 22.9034C19.3682 22.9034 20.0533 22.2184 20.0533 21.3765C20.0533 20.5346 19.3683 19.8496 18.5264 19.8496C17.6845 19.8496 16.9995 20.5346 16.9995 21.3765Z" fill="url(#paint2_linear)"/>
<defs>
<linearGradient id="paint0_linear" x1="55.3029" y1="24.2802" x2="9.42608" y2="-11.0832" gradientUnits="userSpaceOnUse">
<stop stop-color="#FFBE73"/>
<stop offset="1" stop-color="#FFA033"/>
</linearGradient>
<linearGradient id="paint1_linear" x1="47.3307" y1="22.2101" x2="12.5668" y2="-5.79415" gradientUnits="userSpaceOnUse">
<stop stop-color="#FFBE73"/>
<stop offset="1" stop-color="#FFA033"/>
</linearGradient>
<linearGradient id="paint2_linear" x1="33.5166" y1="21.4645" x2="18.6144" y2="6.56234" gradientUnits="userSpaceOnUse">
<stop stop-color="#FFBE73"/>
<stop offset="1" stop-color="#FFA033"/>
</linearGradient>
</defs>
</svg>
