<svg width="48" height="48" viewBox="0 0 48 48" fill="none" xmlns="http://www.w3.org/2000/svg">
<path d="M0.781704 26.0168H10.9439V45.5595H0.781704V26.0168Z" fill="#F9F8FB"/>
<path d="M26.578 3.34735C26.578 2.48385 25.878 1.78394 25.0146 1.78394C24.1511 1.78394 23.4511 2.48385 23.4511 3.34735V30.707H26.578V3.34735Z" fill="#F9F8FB"/>
<path fill-rule="evenodd" clip-rule="evenodd" d="M27 0H23C22.4477 0 22 0.447715 22 1V30C20.3431 30 19 31.3431 19 33C19 34.3835 19.9365 35.5482 21.2101 35.8949C21.0745 36.2369 21 36.6097 21 37C21 38.3835 21.9365 39.5482 23.2101 39.8949C23.0745 40.2369 23 40.6097 23 41C23 42.6569 24.3431 44 26 44H31V45C31 45.5523 30.5523 46 30 46H12V45V27H15C15.5523 27 16 26.5523 16 26V19C16 18.4477 16.4477 18 17 18H18C18.5523 18 19 18.4477 19 19V25C18.9139 26.6749 18.6239 27.8349 18.2 28.4C17.7801 28.9599 16.7761 29.5336 15.1908 30.049C14.6656 30.2197 14.3782 30.784 14.549 31.3092C14.7197 31.8344 15.2839 32.1218 15.8092 31.951C17.7505 31.3199 19.0798 30.5603 19.8 29.6C20.5163 28.645 20.8929 27.1383 20.9987 25.0506L21 19C21 17.3431 19.6569 16 18 16H17C15.3431 16 14 17.3431 14 19V25H12H10H1C0.447715 25 0 25.4477 0 26V45C0 45.5523 0.447715 46 1 46H10V47C10 47.5523 10.4477 48 11 48H30C31.6569 48 33 46.6569 33 45V44C33 43.9435 32.9953 43.8881 32.9863 43.8341C34.1586 43.4262 35 42.3113 35 41C35 40.6097 34.9255 40.2369 34.7899 39.8949C36.0635 39.5482 37 38.3835 37 37C37 36.2316 36.7111 35.5308 36.2361 35C36.7111 34.4692 37 33.7684 37 33C37 32.6494 36.9398 32.3128 36.8293 32H45C46.6569 32 48 30.5 48 29C48 27.5 46.6569 26 45 26H28V20.5H47C48 20.5 47.8824 19.0294 47.8824 19.0294L44.1254 11.9852L47.8944 4.44721C47.8944 4.44721 48 3 47 3H28V1C28 0.447715 27.5523 0 27 0ZM28 5V18.5H45.3333L42.1176 12.4706C41.9652 12.1847 41.9607 11.8426 42.1056 11.5528L45.382 5H28ZM28 28V30H32.263H34H45C45.5523 30 46 29.5523 46 29C46 28.4477 45.5523 28 45 28H28ZM23 32H22C21.4477 32 21 32.4477 21 33C21 33.5523 21.4477 34 22 34H34C34.5523 34 35 33.5523 35 33C35 32.4477 34.5523 32 34 32H32.263H27H23ZM24 36H34C34.5523 36 35 36.4477 35 37C35 37.5523 34.5523 38 34 38H24C23.4477 38 23 37.5523 23 37C23 36.4477 23.4477 36 24 36ZM26 40H32C32.5523 40 33 40.4477 33 41C33 41.5523 32.5523 42 32 42H26C25.4477 42 25 41.5523 25 41C25 40.4477 25.4477 40 26 40ZM10 27H2V44H10V27ZM24 2V30H26V2H24Z" fill="url(#paint0_linear)"/>
<defs>
<linearGradient id="paint0_linear" x1="71.7198" y1="24.2802" x2="24.2802" y2="-23.1595" gradientUnits="userSpaceOnUse">
<stop stop-color="#FFBE73"/>
<stop offset="1" stop-color="#FFA033"/>
</linearGradient>
</defs>
</svg>
