<svg width="48" height="48" viewBox="0 0 48 48" fill="none" xmlns="http://www.w3.org/2000/svg">
<path fill-rule="evenodd" clip-rule="evenodd" d="M16.7017 16.0455L8.70173 18.5455C8.28425 18.676 8 19.0626 8 19.5V33.5C8 33.8448 8.17762 34.1653 8.47 34.348L16.47 39.348C16.7943 39.5507 17.2057 39.5507 17.53 39.348L25.53 34.348C25.8224 34.1653 26 33.8448 26 33.5V19.5C26 19.0626 25.7157 18.676 25.2983 18.5455L17.2983 16.0455C17.1041 15.9848 16.8959 15.9848 16.7017 16.0455ZM46 40H29V47H46V40Z" fill="#F9F8FB"/>
<path d="M5.9998 6.00005C5.9998 5.44776 6.44752 5.00005 6.9998 5.00005C7.55209 5.00005 7.9998 5.44776 7.9998 6.00005C7.9998 6.55233 7.55209 7.00005 6.9998 7.00005C6.44752 7.00005 5.9998 6.55233 5.9998 6.00005Z" fill="#FFBE73"/>
<path d="M9.99984 6.00005C9.99984 6.55233 10.4476 7.00005 10.9998 7.00005H23.9998C24.5521 7.00005 24.9998 6.55233 24.9998 6.00005C24.9998 5.44776 24.5521 5.00005 23.9998 5.00005H10.9998C10.4476 5.00005 9.99984 5.44776 9.99984 6.00005Z" fill="#FFBE73"/>
<path d="M6.9998 12.0001C6.44752 12.0001 5.9998 11.5524 5.9998 11.0001C5.9998 10.4478 6.44752 10.0001 6.9998 10.0001H23.9998C24.5521 10.0001 24.9998 10.4478 24.9998 11.0001C24.9998 11.5524 24.5521 12.0001 23.9998 12.0001H6.9998Z" fill="#FFBE73"/>
<path d="M16.7015 16.0454L8.70155 18.5454C8.28407 18.6759 7.99982 19.0625 7.99982 19.4999V33.4999C7.99982 33.8447 8.17744 34.1652 8.46982 34.3479L16.4698 39.3479C16.7941 39.5506 17.2056 39.5506 17.5298 39.3479L25.5298 34.3479C25.8222 34.1652 25.9998 33.8447 25.9998 33.4999V19.4999C25.9998 19.0625 25.7156 18.6759 25.2981 18.5454L17.2981 16.0454C17.1039 15.9847 16.8958 15.9847 16.7015 16.0454Z" fill="#FFBE73"/>
<path fill-rule="evenodd" clip-rule="evenodd" d="M37.9998 8C37.9998 7.71164 37.8753 7.43731 37.6583 7.24742L29.6583 0.247423C29.476 0.0879183 29.242 0 28.9998 0H3.99976C2.3429 0 0.999756 1.34315 0.999756 3V45C0.999756 46.6569 2.3429 48 3.99976 48H44.9998C46.1043 48 46.9998 47.1046 46.9998 46V39H44.9997V26.0586C44.9997 24.502 44.4809 22.9898 43.5252 21.7611L37.9999 14.6571L37.9998 8ZM27.9998 2H3.99976C3.44747 2 2.99976 2.44772 2.99976 3V45C2.99976 45.5523 3.44747 46 3.99976 46H27.9998V38.9999L30.9999 39V26C30.9999 24.3431 32.343 23 33.9999 23H34.9999C35.3505 23 35.6871 23.0601 35.9999 23.1707V15.0203L35.9997 15.0018L35.9998 14.9871V10H30.9998C29.3429 10 27.9998 8.65686 27.9998 7.00001V2ZM45.0214 46H29.9998V41H45.0214V46ZM37.9999 25.9892L37.9999 26L37.9999 30.9999C37.9999 31.5522 37.5521 31.9999 36.9999 31.9999C36.4476 31.9999 35.9999 31.5522 35.9999 30.9999V25.9937C35.9965 25.4443 35.5501 25 34.9999 25H33.9999C33.4476 25 32.9999 25.4477 32.9999 26V39L42.9997 39V26.0586C42.9997 24.9468 42.6291 23.8666 41.9465 22.9889L37.9999 17.9147V25.9892ZM35.4812 8.00001L29.9998 3.20378V7.00001C29.9998 7.55229 30.4475 8.00001 30.9998 8.00001H35.4812Z" fill="#FFBE73"/>
<path d="M10 32.9457L17 37.3207L24 32.9457V20.2351L17 18.0476L10 20.2351L10 32.9457Z" fill="#F9F8FB"/>
<path d="M20.8272 23.2601C21.2359 22.8886 21.8683 22.9187 22.2398 23.3273C22.6114 23.736 22.5812 24.3684 22.1726 24.74L16.6726 29.74C16.2776 30.099 15.6702 30.0846 15.2928 29.7071L13.2928 27.7071C12.9023 27.3166 12.9023 26.6834 13.2928 26.2929C13.6833 25.9024 14.3165 25.9024 14.707 26.2929L16.0328 27.6187L20.8272 23.2601Z" fill="url(#paint0_linear)"/>
<defs>
<linearGradient id="paint0_linear" x1="28.0157" y1="26.337" x2="21.0746" y2="16.6671" gradientUnits="userSpaceOnUse">
<stop stop-color="#FFBE73"/>
<stop offset="1" stop-color="#FFA033"/>
</linearGradient>
</defs>
</svg>
