<svg width="48" height="48" viewBox="0 0 48 48" fill="none" xmlns="http://www.w3.org/2000/svg">
<path d="M45.688 41L35.44 37.68C35.2803 37.6256 35.1127 37.5986 34.944 37.6H34.4L27.2 44L24 40.8L20.8 44L13.6 37.6H13.056C12.8873 37.5986 12.7197 37.6256 12.56 37.68L2.31199 41C1.39899 41.3603 0.799189 42.2424 0.799989 43.224V47.2H47.2V43.224C47.2008 42.2424 46.6011 41.3603 45.688 41Z" fill="#F9F8FB"/>
<path d="M17.6 34.4H16L17.6 35.68V34.4Z" fill="#F9F8FB"/>
<path d="M32 34.4H30.4V35.68L32 34.4Z" fill="#F9F8FB"/>
<path d="M8 8.00005L13.6 10.272V8.00005L24 6.40005L34.4 8.00005V10.272L40 8.00005L24 0.800049L8 8.00005Z" fill="#F9F8FB"/>
<path d="M38.4 12.0001V16.8001C38.4 17.2419 38.7582 17.6001 39.2 17.6001H40.8C41.2418 17.6001 41.6 17.2419 41.6 16.8001V12.0001C41.6 11.5583 41.2418 11.2001 40.8 11.2001H39.2C38.7582 11.2001 38.4 11.5583 38.4 12.0001Z" fill="#F9F8FB"/>
<path fill-rule="evenodd" clip-rule="evenodd" d="M45.9352 40.2399L35.7016 36.9231C35.4577 36.8403 35.2016 36.7986 34.944 36.7999H34.8L32.64 33.9199C32.5101 33.7467 32.3156 33.6337 32.1008 33.6063C32.0671 33.6065 32.0334 33.6092 32 33.6143V33.5999H31.2V31.0448C33.2171 29.4808 34.3983 27.0724 34.4 24.52V17.9424C34.5379 17.9431 34.6736 17.9079 34.7936 17.84C35.0446 17.6982 35.1998 17.4322 35.2 17.1439V10.8104L39.2 9.18795V10.4C38.3163 10.4 37.6 11.1163 37.6 12V16.7999C37.6 17.6836 38.3163 18.4 39.2 18.4H40.8C41.6837 18.4 42.4 17.6836 42.4 16.7999V12C42.4 11.1163 41.6837 10.4 40.8 10.4V7.99995C40.8003 7.68545 40.6162 7.39995 40.3296 7.27035L24.3296 0.07035C24.121 -0.02345 23.8822 -0.02345 23.6736 0.07035L7.67362 7.27035C7.27052 7.45135 7.09052 7.92485 7.27152 8.32785C7.35592 8.51595 7.50972 8.66405 7.70082 8.74155L12.8 10.8104V17.1439C12.8 17.5857 13.1582 17.944 13.6 17.944V24.52C13.6017 27.0724 14.7829 29.4808 16.8 31.0448V33.5999H16V33.6143C15.9666 33.6092 15.9329 33.6065 15.8992 33.6063C15.6844 33.6337 15.4899 33.7467 15.36 33.9199L13.2 36.7999H13.056C12.8037 36.7982 12.5529 36.8382 12.3136 36.9184L2.01762 40.256C0.796624 40.7336 -0.00507581 41.9128 2.41911e-05 43.2239V47.2C2.41911e-05 47.6418 0.358224 48 0.800024 48H47.2C47.6418 48 48 47.6418 48 47.2V43.2239C48.0004 41.8962 47.1778 40.7074 45.9352 40.2399ZM40.8 16.7999H39.2V12H40.8V16.7999ZM27.232 42.9007L33.3176 37.4911L31.8576 35.54L25.2 40.8664L27.232 42.9007ZM14.4 15.8639V10.4H14.384C14.3929 10.3579 14.3983 10.3149 14.4 10.2719V8.68635L24 7.20955L33.6 8.68635V10.2719C33.6017 10.3149 33.6071 10.3579 33.616 10.4H33.6V15.8639C32.4517 15.4207 31.2308 15.1955 30 15.1999C28.0035 15.1649 26.0508 15.787 24.4424 16.9704C24.2824 17.0936 24.1376 17.2192 24 17.3496C23.8624 17.22 23.7168 17.0943 23.5592 16.972C21.9507 15.7875 19.9973 15.1649 18 15.1999C16.7692 15.1955 15.5483 15.4206 14.4 15.8639ZM37.9656 7.96395L24 1.67995L10.0344 7.96395L12.8 9.08395V7.99995C12.8004 7.60415 13.0902 7.26815 13.4816 7.20955L23.8816 5.60955C23.9611 5.59705 24.0421 5.59705 24.1216 5.60955L34.5216 7.20955C34.9118 7.26955 35.1999 7.60515 35.2 7.99995V9.08395L37.9656 7.96395ZM15.2 24.52V17.2871C16.0984 16.9652 17.0456 16.8004 18 16.7999C19.6389 16.7628 21.2447 17.2652 22.5704 18.2295C22.8673 18.4571 23.1323 18.7236 23.3584 19.0215C23.6235 19.375 24.1249 19.4466 24.4784 19.1815C24.539 19.136 24.5929 19.0821 24.6384 19.0215C24.865 18.7229 25.1306 18.4561 25.428 18.2279C26.7544 17.2638 28.3607 16.7621 30 16.7999C30.9544 16.8004 31.9016 16.9652 32.8 17.2871V24.52C32.7956 28.2073 29.8074 31.1955 26.12 31.2H21.88C18.1926 31.1955 15.2044 28.2073 15.2 24.52ZM29.6 32.0232C28.5109 32.5338 27.3229 32.799 26.12 32.7999H21.88C20.6771 32.799 19.4892 32.5338 18.4 32.0232V35.2952L24 39.7752L29.6 35.2952V32.0232ZM16.1448 35.54L22.8 40.8664L20.768 42.9007L14.6824 37.4911L16.1448 35.54ZM1.60002 43.2239V46.3999H46.4V43.2239C46.4029 42.5701 46.0033 41.982 45.3944 41.7439L35.1928 38.4408C35.1128 38.4129 35.0287 38.3991 34.944 38.3999H34.704L27.7312 44.5975C27.4147 44.8787 26.9339 44.8647 26.6344 44.5655L24 41.9311L21.3656 44.5655C21.0661 44.8647 20.5853 44.8787 20.2688 44.5975L13.296 38.3999H13.056C12.977 38.3986 12.8983 38.4105 12.8232 38.4352L2.56002 41.7599C1.97242 42.0077 1.59312 42.5863 1.60002 43.2239Z" fill="url(#paint0_linear)"/>
<defs>
<linearGradient id="paint0_linear" x1="71.7199" y1="24.2801" x2="24.2802" y2="-23.1595" gradientUnits="userSpaceOnUse">
<stop stop-color="#FFBE73"/>
<stop offset="1" stop-color="#FFA033"/>
</linearGradient>
</defs>
</svg>
