<svg width="48" height="48" viewBox="0 0 48 48" fill="none" xmlns="http://www.w3.org/2000/svg">
<path d="M0.799988 32.2C0.799988 33.9673 2.23269 35.4 3.99999 35.4H44C45.7673 35.4 47.2 33.9673 47.2 32.2V29H0.799988V32.2Z" fill="#F9F8FB"/>
<path d="M16 43.4V46.6H32V43.4H28.8H19.2H16Z" fill="#F9F8FB"/>
<path fill-rule="evenodd" clip-rule="evenodd" d="M3 0C1.34315 0 0 1.34315 0 3V29H2V31H0V33.0216C0 34.6658 1.32336 36.0036 2.96739 36.0214L18.25 36.1876V42H16C15.4477 42 15 42.4477 15 43V46H11V48H16C15.4477 48 15 47.5523 15 47V46H17V44H31V46H33V47C33 47.5523 32.5523 48 32 48H37V46H33V43C33 42.4477 32.5523 42 32 42H30V36.3153L44.9674 36.478C46.6241 36.496 47.9818 35.1675 48 33.4781V31H45.9999L46 29H48V3C48 1.34315 46.6569 0 45 0H3ZM28 36.2935V35H30V36.3153L28 36.2935ZM28 42V36.2935L20.25 36.2093V35H18.25V36.1876L20.25 36.2093V42H18.25V43H20.25V42H28ZM28 42V43H30V42H28ZM45.9999 31L45.9999 33.489C45.9939 34.0413 45.5414 34.4841 44.9891 34.4781L2.98913 34.0216C2.44112 34.0156 2 33.5697 2 33.0216V31H45.9999ZM46 29H2V3C2 2.44772 2.44772 2 3 2H45C45.5523 2 46 2.44772 46 3L46 29ZM24 4C17.9345 4 13 8.93451 13 15C13 21.0655 17.9345 26.0001 24 26.0001C26.0504 26.0001 28.0515 25.4318 29.7868 24.3565C30.377 23.9909 30.559 23.2159 30.1933 22.6257C29.8277 22.0357 29.0528 21.8536 28.4625 22.2194C27.1252 23.048 25.582 23.486 23.9999 23.486C19.3208 23.486 15.5141 19.6793 15.5141 15.0002C15.5141 10.3211 19.3208 6.51445 23.9999 6.51445C28.679 6.51445 32.4856 10.3211 32.4856 15.0002C32.4856 15.7964 32.2987 16.4625 31.9593 16.876C31.7315 17.1535 31.4422 17.3062 31.1445 17.3062C30.4942 17.3062 29.7945 16.5846 29.7945 15.0002C29.7945 11.8051 27.1951 9.20568 24 9.20568C20.8049 9.20568 18.2055 11.8051 18.2055 15.0002C18.2055 18.1953 20.8049 20.7946 24 20.7946C25.8254 20.7946 27.4552 19.9454 28.5181 18.6224C29.2412 19.4141 30.1952 19.8204 31.1446 19.8204C32.1939 19.8204 33.1992 19.3287 33.9029 18.471C34.6207 17.5964 35 16.3963 35 15.0002C35 8.93472 30.0655 4 24 4ZM20.7197 15.0001C20.7197 16.8088 22.1912 18.2803 24 18.2803C25.8088 18.2803 27.2803 16.8088 27.2803 15.0001C27.2803 13.1913 25.8088 11.7198 24 11.7198C22.1912 11.7198 20.7197 13.1913 20.7197 15.0001Z" fill="url(#paint0_linear)"/>
<defs>
<linearGradient id="paint0_linear" x1="71.7198" y1="24.2802" x2="24.2802" y2="-23.1595" gradientUnits="userSpaceOnUse">
<stop stop-color="#FFBE73"/>
<stop offset="1" stop-color="#FFA033"/>
</linearGradient>
</defs>
</svg>
