<svg width="48" height="48" viewBox="0 0 48 48" fill="none" xmlns="http://www.w3.org/2000/svg">
<path d="M40.7152 21.8349C39.3513 22.3126 38.279 23.385 37.8012 24.7488H19.9584C19.0766 24.7488 18.3617 25.4636 18.3617 26.3455V31.1355H21.5551V27.9422H24.7484V31.1355H27.9418V27.9422H37.8012C38.279 29.306 39.3513 30.3784 40.7152 30.8561C41.2268 31.0424 41.7674 31.137 42.3118 31.1355C44.9573 31.1358 47.1021 28.9915 47.1024 26.346C47.1024 26.2601 47.1001 26.1742 47.0955 26.0884C46.9174 23.4172 44.6075 21.3961 41.9362 21.5741C41.8344 21.581 41.7329 21.591 41.6317 21.6042C41.319 21.6493 41.0119 21.7265 40.7152 21.8349Z" fill="#F9F8FB"/>
<path fill-rule="evenodd" clip-rule="evenodd" d="M37 8C37 7.71164 36.8755 7.43731 36.6585 7.24742L29 0.546232V0H3C1.34315 0 0 1.34315 0 3V45C0 46.6569 1.34315 48 3 48H34C35.6569 48 37 46.6569 37 45V34H35V45C35 45.5523 34.5523 46 34 46H3C2.44772 46 2 45.5523 2 45V3C2 2.44772 2.44772 2 3 2H27V7C27 8.65685 28.3431 10 30 10H35V18H37V8ZM29 7V3.20377L34.4814 8H30C29.4477 8 29 7.55228 29 7Z" fill="url(#paint0_linear)"/>
<path d="M7 5H5V7H7V5Z" fill="url(#paint1_linear)"/>
<path fill-rule="evenodd" clip-rule="evenodd" d="M12.7722 32.2972C12.7651 33.3364 12.8398 34.8815 12.997 36.9232C13.0418 37.504 12.5826 38 12 38H8.09916C7.5093 38 7.04759 37.4921 7.1037 36.9049C7.29627 34.8895 7.39217 33.3643 7.39217 32.34C7.39217 31.9275 7.37636 31.6054 7.34801 31.3835C5.32415 30.386 4 28.3156 4 26C4 22.6863 6.68629 20 10 20C13.3137 20 16 22.6863 16 26C16 28.247 14.7532 30.2667 12.8215 31.2964C12.7926 31.5273 12.7752 31.864 12.7722 32.2972ZM11.6351 29.6519C10.6754 30.0824 10.598 31.5106 10.9223 36H9.19629C9.58784 31.6259 9.51202 30.1259 8.47958 29.7012C6.99168 29.0892 6 27.6365 6 26C6 23.7909 7.79086 22 10 22C12.2091 22 14 23.7909 14 26C14 27.5915 13.0623 29.0116 11.6351 29.6519Z" fill="url(#paint2_linear)"/>
<path fill-rule="evenodd" clip-rule="evenodd" d="M42 20C45.3137 20 48 22.6863 48 26C48 29.3137 45.3137 32 42 32C39.8252 32 37.8641 30.832 36.8069 29.0074C35.7009 29.0029 33.0805 29.0004 29 29V31C29 31.5523 28.5523 32 28 32H25C24.4477 32 24 31.5523 24 31V29H23V31C23 31.5523 22.5523 32 22 32H19C18.4477 32 18 31.5523 18 31V25.0566C18 24.5055 18.4458 24.0583 18.9969 24.0566L36.2352 24.0024C37.0595 21.642 39.3761 20 42 20ZM28 27C27.4477 27 27 27.4477 27 28V30H26V28C26 27.4477 25.5523 27 25 27H22C21.4477 27 21 27.4477 21 28V30H20V26.0534L37.0031 26C37.4819 25.9985 37.8925 25.6578 37.9823 25.1876C38.3315 23.3584 40.0314 22 42 22C44.2091 22 46 23.7909 46 26C46 28.2091 44.2091 30 42 30C40.3984 30 38.9709 29.0504 38.3367 27.6095C38.1813 27.2564 37.8365 27.0241 37.4508 27.0128C37.1535 27.0041 34.0507 27 28 27Z" fill="url(#paint3_linear)"/>
<path d="M9 5V7H24V5H9Z" fill="url(#paint4_linear)"/>
<path d="M5 12V10H24V12H5Z" fill="url(#paint5_linear)"/>
<path d="M5 15V17H24V15H5Z" fill="url(#paint6_linear)"/>
<defs>
<linearGradient id="paint0_linear" x1="71.7198" y1="24.2802" x2="24.2802" y2="-23.1595" gradientUnits="userSpaceOnUse">
<stop stop-color="#FFBE73"/>
<stop offset="1" stop-color="#FFA033"/>
</linearGradient>
<linearGradient id="paint1_linear" x1="71.7198" y1="24.2802" x2="24.2802" y2="-23.1595" gradientUnits="userSpaceOnUse">
<stop stop-color="#FFBE73"/>
<stop offset="1" stop-color="#FFA033"/>
</linearGradient>
<linearGradient id="paint2_linear" x1="71.7198" y1="24.2802" x2="24.2802" y2="-23.1595" gradientUnits="userSpaceOnUse">
<stop stop-color="#FFBE73"/>
<stop offset="1" stop-color="#FFA033"/>
</linearGradient>
<linearGradient id="paint3_linear" x1="71.7198" y1="24.2802" x2="24.2802" y2="-23.1595" gradientUnits="userSpaceOnUse">
<stop stop-color="#FFBE73"/>
<stop offset="1" stop-color="#FFA033"/>
</linearGradient>
<linearGradient id="paint4_linear" x1="71.7198" y1="24.2802" x2="24.2802" y2="-23.1595" gradientUnits="userSpaceOnUse">
<stop stop-color="#FFBE73"/>
<stop offset="1" stop-color="#FFA033"/>
</linearGradient>
<linearGradient id="paint5_linear" x1="71.7198" y1="24.2802" x2="24.2802" y2="-23.1595" gradientUnits="userSpaceOnUse">
<stop stop-color="#FFBE73"/>
<stop offset="1" stop-color="#FFA033"/>
</linearGradient>
<linearGradient id="paint6_linear" x1="71.7198" y1="24.2802" x2="24.2802" y2="-23.1595" gradientUnits="userSpaceOnUse">
<stop stop-color="#FFBE73"/>
<stop offset="1" stop-color="#FFA033"/>
</linearGradient>
</defs>
</svg>
