<svg width="22" height="13" viewBox="0 0 22 13" fill="none" xmlns="http://www.w3.org/2000/svg">
<path d="M18.9461 7.87978C19.6761 8.58859 20.4485 9.25567 21.1039 10.0378C21.3943 10.3837 21.668 10.7415 21.8763 11.1438C22.1737 11.7176 21.9051 12.3467 21.3885 12.3808L18.1795 12.3802C17.3507 12.4484 16.6911 12.1161 16.1351 11.5529C15.6912 11.104 15.2794 10.6246 14.8519 10.1604C14.6772 9.9699 14.4932 9.79055 14.274 9.64942C13.8366 9.36653 13.4565 9.45318 13.2059 9.90746C12.9504 10.3697 12.8921 10.882 12.8677 11.3964C12.8328 12.1486 12.6046 12.3451 11.8454 12.3805C10.2231 12.456 8.6838 12.2113 7.25316 11.3984C5.99108 10.6813 5.01424 9.66917 4.16303 8.52328C2.50548 6.28949 1.25184 4.11695 0.111234 1.59485C-0.145474 1.02685 0.04233 0.722932 0.672725 0.711145C1.72007 0.691075 2.76742 0.693624 3.81476 0.710189C4.24101 0.716879 4.52304 0.959309 4.68681 1.35911C5.25278 2.74329 5.93083 3.78108 6.80031 5.00247C7.03202 5.32773 7.26854 5.65203 7.60537 5.88172C7.97713 6.1353 8.26044 6.05152 8.43575 5.63897C8.54792 5.37679 8.59631 5.09645 8.62067 4.81547C8.70399 3.85308 8.71393 2.891 8.56971 1.93243C8.47997 1.33257 8.14058 0.945191 7.53903 0.831781C7.23265 0.77412 7.27751 0.661347 7.42654 0.487409C7.68517 0.186681 7.92746 0.000637136 8.41171 0.000637136L12.0374 0C12.6088 0.111499 12.737 0.366353 12.8145 0.938501L12.8177 4.94354C12.811 5.16494 12.9296 5.82119 13.3296 5.96614C13.65 6.07127 13.8616 5.81578 14.0532 5.61412C14.9227 4.69697 15.1616 3.88536 15.7164 2.76495C15.9612 2.27085 16.1724 1.75955 16.3776 1.24729C16.5301 0.868517 16.7673 0.682155 17.1974 0.688527L20.6887 0.692668C20.7916 0.692668 20.8961 0.693624 20.998 0.711145C21.5864 0.811175 21.7476 1.06284 21.5656 1.6334C21.2791 2.52985 21.1029 3.00569 20.5588 3.75432C19.9755 4.55584 19.3534 5.32932 18.7759 6.13434C18.2452 6.87024 18.2872 7.24073 18.9461 7.87978Z" fill="#CCCBCF"/>
<mask id="mask0" mask-type="alpha" maskUnits="userSpaceOnUse" x="0" y="0" width="22" height="13">
<path d="M18.9461 7.87978C19.6761 8.58859 20.4485 9.25567 21.1039 10.0378C21.3943 10.3837 21.668 10.7415 21.8763 11.1438C22.1737 11.7176 21.9051 12.3467 21.3885 12.3808L18.1795 12.3802C17.3507 12.4484 16.6911 12.1161 16.1351 11.5529C15.6912 11.104 15.2794 10.6246 14.8519 10.1604C14.6772 9.9699 14.4932 9.79055 14.274 9.64942C13.8366 9.36653 13.4565 9.45318 13.2059 9.90746C12.9504 10.3697 12.8921 10.882 12.8677 11.3964C12.8328 12.1486 12.6046 12.3451 11.8454 12.3805C10.2231 12.456 8.6838 12.2113 7.25316 11.3984C5.99108 10.6813 5.01424 9.66917 4.16303 8.52328C2.50548 6.28949 1.25184 4.11695 0.111234 1.59485C-0.145474 1.02685 0.04233 0.722932 0.672725 0.711145C1.72007 0.691075 2.76742 0.693624 3.81476 0.710189C4.24101 0.716879 4.52304 0.959309 4.68681 1.35911C5.25278 2.74329 5.93083 3.78108 6.80031 5.00247C7.03202 5.32773 7.26854 5.65203 7.60537 5.88172C7.97713 6.1353 8.26044 6.05152 8.43575 5.63897C8.54792 5.37679 8.59631 5.09645 8.62067 4.81547C8.70399 3.85308 8.71393 2.891 8.56971 1.93243C8.47997 1.33257 8.14058 0.945191 7.53903 0.831781C7.23265 0.77412 7.27751 0.661347 7.42654 0.487409C7.68517 0.186681 7.92746 0.000637136 8.41171 0.000637136L12.0374 0C12.6088 0.111499 12.737 0.366353 12.8145 0.938501L12.8177 4.94354C12.811 5.16494 12.9296 5.82119 13.3296 5.96614C13.65 6.07127 13.8616 5.81578 14.0532 5.61412C14.9227 4.69697 15.1616 3.88536 15.7164 2.76495C15.9612 2.27085 16.1724 1.75955 16.3776 1.24729C16.5301 0.868517 16.7673 0.682155 17.1974 0.688527L20.6887 0.692668C20.7916 0.692668 20.8961 0.693624 20.998 0.711145C21.5864 0.811175 21.7476 1.06284 21.5656 1.6334C21.2791 2.52985 21.1029 3.00569 20.5588 3.75432C19.9755 4.55584 19.3534 5.32932 18.7759 6.13434C18.2452 6.87024 18.2872 7.24073 18.9461 7.87978Z" fill="white"/>
</mask>
<g mask="url(#mask0)">
</g>
</svg>
