<svg width="48" height="48" viewBox="0 0 48 48" fill="none" xmlns="http://www.w3.org/2000/svg">
<path fill-rule="evenodd" clip-rule="evenodd" d="M10 14C6.13401 14 3 10.866 3 7C3 3.13401 6.13401 0 10 0C13.866 0 17 3.13401 17 7C17 10.866 13.866 14 10 14ZM28.5 5C28.5 4.2013 27.6099 3.72491 26.9453 4.16795L22.4453 7.16795C21.8516 7.56377 21.8516 8.43623 22.4453 8.83205L26.9453 11.8321C27.6099 12.2751 28.5 11.7987 28.5 11V9H39.069V17C39.069 17.5523 39.5012 18 40.0345 18C40.5677 18 41 17.5523 41 17V8C41 7.44772 40.5677 7 40.0345 7H28.5V5ZM21.0547 37.1696C20.3901 36.7266 19.5 37.203 19.5 38.0017V40H8.93103V32C8.93103 31.4477 8.49876 31 7.96552 31C7.43228 31 7 31.4477 7 32V41C7 41.5523 7.43228 42 7.96552 42H19.5V44.0017C19.5 44.8004 20.3901 45.2768 21.0547 44.8337L25.5547 41.8337C26.1484 41.4379 26.1484 40.5655 25.5547 40.1696L21.0547 37.1696ZM15 7C15 9.76142 12.7614 12 10 12C7.23858 12 5 9.76142 5 7C5 4.23858 7.23858 2 10 2C12.7614 2 15 4.23858 15 7ZM38 35C34.134 35 31 31.866 31 28C31 24.134 34.134 21 38 21C41.866 21 45 24.134 45 28C45 31.866 41.866 35 38 35ZM43 28C43 30.7614 40.7614 33 38 33C35.2386 33 33 30.7614 33 28C33 25.2386 35.2386 23 38 23C40.7614 23 43 25.2386 43 28ZM20 25.8123C20 26.3646 19.5523 26.8123 19 26.8123H1C0.447715 26.8123 0 26.3646 0 25.8123C0 21.2305 1.20092 17.1101 3.36542 14.3789C3.95396 13.6363 5.14915 14.0524 5.14915 15C5.14915 14.7643 5.2939 14.7572 5.36761 14.7536C5.39002 14.7525 5.40586 14.7518 5.40908 14.745C5.41686 14.7286 5.35109 14.6773 5.12652 14.502L5.1265 14.502L5.12628 14.5018L5.12627 14.5018C5.05806 14.4486 4.97521 14.3839 4.87533 14.3053C4.94313 14.3587 5.03193 14.4239 5.13616 14.4952C5.43641 14.7008 5.79442 14.911 6.19878 15.1073C7.34848 15.6655 8.62977 16 10 16C11.3695 16 12.6528 15.6661 13.8114 15.1083C14.2168 14.9131 14.5761 14.7047 14.8835 14.4981C15.0604 14.3792 15.1755 14.292 15.2234 14.2519C15.6556 13.8899 16.3015 13.9565 16.6506 14.3992C18.8051 17.1307 20 21.2421 20 25.8123ZM14.6791 16.9103C15.0358 16.7385 15.3518 16.5657 15.6248 16.4009C17.0024 18.532 17.8391 21.4913 17.9791 24.8123H2.02093C2.16095 21.4899 2.99825 18.5298 4.37657 16.3987C5.73387 17.25 7.99428 18 10 18C11.693 18 13.2655 17.5908 14.6791 16.9103ZM48 46.8123C48 47.3646 47.5523 47.8123 47 47.8123H29C28.4477 47.8123 28 47.3646 28 46.8123C28 42.2305 29.2009 38.1101 31.3654 35.3789C31.954 34.6363 33.1491 35.0524 33.1491 36C33.1491 35.7643 33.2939 35.7572 33.3676 35.7536C33.39 35.7525 33.4059 35.7518 33.4091 35.745C33.4169 35.7286 33.3511 35.6773 33.1265 35.502C33.0582 35.4487 32.9753 35.384 32.8753 35.3053C32.9431 35.3587 33.0319 35.4239 33.1362 35.4952C33.4364 35.7008 33.7944 35.911 34.1988 36.1073C35.3485 36.6655 36.6298 37 38 37C39.3695 37 40.6528 36.6661 41.8114 36.1083C42.2169 35.9131 42.5761 35.7047 42.8835 35.4981C43.0604 35.3792 43.1755 35.292 43.2234 35.2519C43.6556 34.8899 44.3015 34.9565 44.6507 35.3992C46.8051 38.1307 48 42.2421 48 46.8123ZM42.6791 37.9103C43.0358 37.7385 43.3518 37.5657 43.6249 37.4009C45.0024 39.532 45.8391 42.4913 45.9791 45.8123H30.0209C30.161 42.4899 30.9983 39.5298 32.3766 37.3987C33.7339 38.25 35.9943 39 38 39C39.693 39 41.2655 38.5908 42.6791 37.9103Z" fill="url(#paint0_linear)"/>
<defs>
<linearGradient id="paint0_linear" x1="71.7198" y1="24.1852" x2="24.466" y2="-23.2541" gradientUnits="userSpaceOnUse">
<stop stop-color="#FFBE73"/>
<stop offset="1" stop-color="#FFA033"/>
</linearGradient>
</defs>
</svg>
