<svg width="47" height="48" viewBox="0 0 47 48" fill="none" xmlns="http://www.w3.org/2000/svg">
<path fill-rule="evenodd" clip-rule="evenodd" d="M1.95833 46H34.2708C34.8116 46 35.25 46.4477 35.25 47C35.25 47.5523 34.8116 48 34.2708 48H0.979167C0.438388 48 0 47.5523 0 47V1C0 0.447715 0.438388 0 0.979167 0H39.1667C39.7074 0 40.1458 0.447715 40.1458 1V20C40.1458 20.5523 39.7074 21 39.1667 21C38.6259 21 38.1875 20.5523 38.1875 20V2H1.95833V46ZM26.4375 9.25C25.8967 9.25 25.4583 8.80229 25.4583 8.25C25.4583 7.69772 25.8967 7.25 26.4375 7.25H33.2917C33.8324 7.25 34.2708 7.69772 34.2708 8.25C34.2708 8.80229 33.8324 9.25 33.2917 9.25H26.4375ZM4.89583 32C4.35505 32 3.91667 31.5523 3.91667 31C3.91667 30.4477 4.35505 30 4.89583 30H15.6667C16.2074 30 16.6458 30.4477 16.6458 31C16.6458 31.5523 16.2074 32 15.6667 32H4.89583ZM25.4583 13.2083C25.4583 13.7606 25.8967 14.2083 26.4375 14.2083H33.2917C33.8324 14.2083 34.2708 13.7606 34.2708 13.2083C34.2708 12.656 33.8324 12.2083 33.2917 12.2083H26.4375C25.8967 12.2083 25.4583 12.656 25.4583 13.2083ZM4.89583 37.25C4.35505 37.25 3.91667 36.8023 3.91667 36.25C3.91667 35.6977 4.35505 35.25 4.89583 35.25H17.625C18.1658 35.25 18.6042 35.6977 18.6042 36.25C18.6042 36.8023 18.1658 37.25 17.625 37.25H4.89583ZM3.91667 41.25C3.91667 41.8023 4.35505 42.25 4.89583 42.25H19.5833C20.1241 42.25 20.5625 41.8023 20.5625 41.25C20.5625 40.6977 20.1241 40.25 19.5833 40.25H4.89583C4.35505 40.25 3.91667 40.6977 3.91667 41.25ZM6.85417 11C6.85417 13.7614 9.04611 16 11.75 16C14.4539 16 16.6458 13.7614 16.6458 11C16.6458 8.23858 14.4539 6 11.75 6C9.04611 6 6.85417 8.23858 6.85417 11ZM11.75 14C13.3723 14 14.6875 12.6569 14.6875 11C14.6875 9.34315 13.3723 8 11.75 8C10.1277 8 8.8125 9.34315 8.8125 11C8.8125 12.6569 10.1277 14 11.75 14ZM5.87667 24L17.6267 23.9796C18.2161 23.9785 18.671 23.4498 18.5963 22.8527C18.4109 21.3729 17.7201 19.9939 16.6036 18.9265C13.9168 16.3578 9.58571 16.3578 6.8989 18.9265C5.77623 19.9998 5.08403 21.3882 4.90328 22.8769C4.83077 23.4742 5.28742 24.001 5.87667 24ZM15.2653 20.3866C13.3315 18.5378 10.171 18.5378 8.23723 20.3866C7.74686 20.8554 7.37654 21.4037 7.13676 21.9978L16.3592 21.9818C16.1193 21.3938 15.7512 20.8512 15.2653 20.3866ZM40.1458 32C40.1458 34.125 39.4247 36.078 38.2187 37.6177L46.7132 46.2929C47.0956 46.6834 47.0956 47.3166 46.7132 47.7071C46.3308 48.0976 45.7108 48.0976 45.3285 47.7071L36.834 39.0319C35.3264 40.2635 33.4141 41 31.3333 41C26.4663 41 22.5208 36.9706 22.5208 32C22.5208 27.0294 26.4663 23 31.3333 23C36.2003 23 40.1458 27.0294 40.1458 32ZM38.1875 32C38.1875 35.866 35.1188 39 31.3333 39C27.5479 39 24.4792 35.866 24.4792 32C24.4792 28.134 27.5479 25 31.3333 25C35.1188 25 38.1875 28.134 38.1875 32Z" fill="url(#paint0_linear)"/>
<defs>
<linearGradient id="paint0_linear" x1="70.2257" y1="24.2802" x2="22.7965" y2="-22.1609" gradientUnits="userSpaceOnUse">
<stop stop-color="#FFBE73"/>
<stop offset="1" stop-color="#FFA033"/>
</linearGradient>
</defs>
</svg>
