<svg width="48" height="48" viewBox="0 0 48 48" fill="none" xmlns="http://www.w3.org/2000/svg">
<path fill-rule="evenodd" clip-rule="evenodd" d="M26.5152 21.5277V21H36V17L48 0H34L24.0047 14.7983L14 0H0L12 17V21H21.4942V21.5277C14.2308 22.9055 9.46653 29.8739 10.853 37.0921C12.2395 44.3103 19.2517 49.0448 26.5152 47.6669C33.7787 46.2891 38.5429 39.3207 37.1564 32.1025C36.1268 26.7426 31.9086 22.5507 26.5152 21.5277ZM21.1043 35.4819L16.4039 32.0956H22.2089L24.0047 26.6162L25.8005 32.0956H31.6055L26.9051 35.4861L28.7018 40.9688L24.0047 37.5842L19.3076 40.9647L21.1043 35.4819ZM24.5855 33.7588L24.0047 31.9867L23.424 33.7588H21.5637L23.0725 34.8466L22.4926 36.6154L24.0047 35.526L25.5194 36.6154L24.9394 34.8466L26.4457 33.7588H24.5855ZM38 7H31.5L26 15H35.4381L37.5 12H32.3729V10H39L44.5 2H35L32.5 5H38V7ZM13 2L15.5 5H10V7H16.5L22 15H12.5L10.5 12H15.6365V10H9L3.5 2H13ZM14 17V19H34V17H14ZM23.1679 20.4532H24.8415V21.3272C24.7776 21.3232 24.7137 21.3188 24.6498 21.3144L24.6498 21.3144C24.4362 21.2996 24.2224 21.2848 24.0047 21.2848C23.787 21.2848 23.5734 21.2996 23.3598 21.3144H23.3598H23.3597H23.3597H23.3597H23.3596L23.3592 21.3144L23.3587 21.3144L23.3584 21.3145C23.2949 21.3189 23.2314 21.3232 23.1679 21.3272V20.4532ZM12.2892 34.5904C12.2892 41.0204 17.5344 46.2328 24.0047 46.2328C30.4721 46.226 35.7133 41.0175 35.7202 34.5904C35.7202 28.1605 30.475 22.948 24.0047 22.948C17.5344 22.948 12.2892 28.1605 12.2892 34.5904ZM6.02092 20H4.34728C4.34728 21.8371 2.84864 23.3264 1 23.3264V24.9896C2.84864 24.9896 4.34728 26.4789 4.34728 28.316H6.02092C6.02092 26.4789 7.51956 24.9896 9.3682 24.9896V23.3264C7.51956 23.3264 6.02092 21.8371 6.02092 20ZM5.17657 25.5509L5.1841 25.5609C5.55628 25.0048 6.03619 24.5279 6.59582 24.158C6.03619 23.7881 5.55628 23.3112 5.1841 22.7551C4.81192 23.3112 4.33201 23.7881 3.77238 24.158L3.78243 24.1655C4.33389 24.5322 4.80753 25.0029 5.17657 25.5509ZM44.0209 35H42.3473C42.3473 36.8371 40.8486 38.3264 39 38.3264V39.9896C40.8486 39.9896 42.3473 41.4789 42.3473 43.316H44.0209C44.0209 41.4789 45.5196 39.9896 47.3682 39.9896V38.3264C45.5196 38.3264 44.0209 36.8371 44.0209 35ZM43.1766 40.5509L43.1841 40.5609C43.5563 40.0048 44.0362 39.5279 44.5958 39.158C44.0362 38.7881 43.5563 38.3112 43.1841 37.7551C42.8119 38.3112 42.332 38.7881 41.7724 39.158L41.7824 39.1655C42.3339 39.5322 42.8075 40.0029 43.1766 40.5509Z" fill="url(#paint0_linear)"/>
<defs>
<linearGradient id="paint0_linear" x1="71.7198" y1="24.2323" x2="24.3738" y2="-23.2073" gradientUnits="userSpaceOnUse">
<stop stop-color="#FFBE73"/>
<stop offset="1" stop-color="#FFA033"/>
</linearGradient>
</defs>
</svg>
